<svg width="45" height="53" viewBox="0 0 45 53" fill="none" xmlns="http://www.w3.org/2000/svg">
<path d="M41.942 18.8165C41.2242 18.4145 40.5639 17.9264 39.8605 17.4958C39.6882 17.3953 39.6308 17.2948 39.6595 17.0938C39.8892 15.5291 40.0614 13.9643 40.1332 12.3996C40.1906 11.1363 39.7025 10.1171 38.6546 9.41363C34.4484 6.5856 30.2566 3.75758 26.0074 0.986968C23.9976 -0.319381 21.8443 -0.333735 19.8489 0.972614C15.5853 3.74322 11.3648 6.59996 7.15866 9.44235C6.15378 10.1171 5.66569 11.1219 5.70876 12.3422C5.76618 13.9356 5.95281 15.5291 6.18249 17.1082C6.2112 17.3379 6.15378 17.4527 5.96716 17.5676C5.23503 18.0269 4.5029 18.5007 3.77077 18.96C1.53131 20.3956 0.555145 22.7499 1.15807 25.3482C3.81384 36.646 10.0585 45.4315 19.7484 51.7767C21.83 53.1404 24.0264 53.1404 26.1223 51.791C33.1708 47.2547 38.4967 41.211 41.9851 33.5596C42.0712 33.3729 42.2148 33.215 42.2435 32.9997C42.344 32.3106 41.7984 31.7508 40.9945 31.7508C36.128 31.7508 31.2615 31.7508 26.395 31.7508C25.8926 31.7508 25.5337 31.9374 25.2466 32.3537C24.6293 33.2868 23.9259 34.1625 23.1937 34.9951C22.9066 35.3253 22.9066 35.3253 22.6195 34.9951C19.2747 31.1765 17.1214 26.7838 16.1596 21.7881C16.1165 21.5727 16.1595 21.4579 16.3462 21.343C18.4564 19.9506 20.5667 18.5437 22.6769 17.1369C22.8349 17.0364 22.9497 17.0077 23.122 17.1225C25.2322 18.5437 27.3568 19.9506 29.4814 21.343C29.6393 21.4579 29.6968 21.544 29.6537 21.7593C29.3953 23.1231 29.0364 24.4438 28.5914 25.7502C28.2756 26.6976 28.735 27.3293 29.7255 27.3293C31.9793 27.3293 34.2187 27.3293 36.4726 27.3293C38.7551 27.3293 41.0376 27.3293 43.3201 27.3293C43.9231 27.3293 44.2819 27.0422 44.4398 26.4679C44.526 26.1665 44.5834 25.865 44.6695 25.5779C45.4878 22.635 44.1527 20.0798 41.942 18.8165ZM34.3049 34.0907C34.3767 33.9615 34.4484 33.861 34.6351 33.861C36.2285 33.8754 37.8363 33.861 39.4441 33.861C39.4585 34.0189 39.3867 34.0907 39.3437 34.1768C35.9845 40.766 31.1467 46.0201 24.9307 50.0109C23.6388 50.8436 22.275 50.8579 20.9973 50.0253C11.695 43.9816 5.72312 35.5837 3.21091 24.7596C2.83766 23.1231 3.45495 21.6589 4.87614 20.7545C5.43601 20.3956 5.98151 20.051 6.58444 19.6634C6.81413 20.7975 7.02946 21.8885 7.30222 22.9652C8.63728 28.2767 10.6758 33.3012 13.8483 37.7944C15.7576 40.4933 18.0258 42.8332 20.8107 44.642C22.2319 45.5607 23.61 45.5607 25.0312 44.642C28.0459 42.6896 30.4433 40.1057 32.453 37.1484C33.1134 36.1723 33.745 35.153 34.3049 34.0907ZM37.2621 18.7447C36.8889 20.8262 36.4151 22.8934 35.8122 24.9319C35.7404 25.1472 35.6687 25.2334 35.4246 25.2334C33.9747 25.219 32.5248 25.2334 31.0318 25.2334C31.3333 24.1424 31.606 23.0944 31.7927 22.0034C31.9506 21.0559 31.6635 20.2664 30.8739 19.7352C28.6345 18.2135 26.3807 16.7206 24.1268 15.242C23.366 14.7395 22.5334 14.7395 21.7725 15.2276C19.5044 16.7062 17.2362 18.2135 14.9824 19.7352C14.2216 20.252 13.9057 21.0416 14.0637 21.946C15.0685 27.4728 17.4515 32.3393 21.184 36.5455C22.1889 37.6796 23.6675 37.6796 24.6723 36.5598C25.3614 35.7847 26.0218 34.9807 26.6247 34.1338C26.7683 33.9328 26.9118 33.861 27.1558 33.861C28.7493 33.8754 30.3428 33.861 31.9506 33.861C31.9506 33.9041 31.9649 33.9472 31.9506 33.9759C30.0413 37.2346 27.7301 40.1487 24.6149 42.3595C24.3135 42.5748 23.9833 42.7758 23.6675 42.9767C23.165 43.3069 22.6626 43.2926 22.1601 42.9767C20.136 41.7135 18.399 40.12 16.8917 38.2825C14.0206 34.8228 12.0539 30.8607 10.604 26.6402C9.69958 24.0419 9.05359 21.3717 8.5655 18.6729C8.52243 18.4289 8.63728 18.3571 8.79519 18.2423C11.5227 16.5052 14.2503 14.7539 16.9922 13.0169C18.7005 11.9258 20.4231 10.8348 22.1171 9.74381C22.6913 9.37057 23.2224 9.37057 23.7967 9.74381C28.1894 12.5575 32.5966 15.3712 37.0037 18.1705C37.219 18.3284 37.3052 18.4576 37.2621 18.7447ZM37.3482 15.888C33.1995 13.2465 29.0364 10.5908 24.8877 7.94938C23.5957 7.11676 22.2893 7.13111 20.9973 7.94938C16.8486 10.5908 12.7142 13.2322 8.5655 15.8736C8.45065 15.9454 8.33581 16.0172 8.16355 16.132C8.07741 15.2994 7.99128 14.5098 7.9195 13.7346C7.87644 13.3183 7.87644 12.8877 7.83337 12.4714C7.7616 11.8397 8.01999 11.3947 8.55115 11.0358C12.2405 8.58102 15.9299 6.11188 19.6192 3.64273C20.0355 3.36998 20.4518 3.08287 20.8681 2.81011C22.2176 1.94879 23.61 1.92007 24.9451 2.81011C29.0938 5.55201 33.2139 8.32262 37.3482 11.0932C37.822 11.409 38.0373 11.8254 38.0086 12.3852C37.9368 13.6054 37.822 14.8113 37.6641 16.0315C37.5061 16.0459 37.4344 15.9454 37.3482 15.888ZM42.6454 25.0468C42.6023 25.176 42.5593 25.2334 42.4157 25.2334C40.9371 25.2334 39.4441 25.2334 37.9368 25.2334C38.468 23.3959 38.913 21.5584 39.2575 19.6778C39.4872 19.7496 39.6738 19.9075 39.8605 20.0223C40.2768 20.2807 40.6931 20.5391 41.095 20.8119C42.5306 21.7306 43.1335 23.3959 42.6454 25.0468Z" fill="#333333"/>
</svg>
