<svg width="447" height="359" viewBox="0 0 447 359" fill="none" xmlns="http://www.w3.org/2000/svg">
<mask id="mask0" mask-type="alpha" maskUnits="userSpaceOnUse" x="0" y="0" width="447" height="359">
<rect width="447" height="359" rx="8" fill="#E0E0E0"/>
</mask>
<g mask="url(#mask0)">
<path d="M501.039 229.429C496.175 226.643 491.701 223.26 486.934 220.275C485.767 219.578 485.378 218.881 485.572 217.488C487.129 206.642 488.296 195.796 488.782 184.95C489.171 176.193 485.864 169.128 478.763 164.252C450.262 144.649 421.858 125.046 393.065 105.841C379.447 96.7862 364.856 96.6867 351.335 105.742C322.445 124.947 293.847 144.749 265.345 164.451C258.536 169.128 255.229 176.093 255.521 184.551C255.91 195.597 257.175 206.642 258.731 217.588C258.925 219.18 258.536 219.976 257.272 220.772C252.311 223.956 247.35 227.24 242.389 230.424C227.214 240.375 220.6 256.694 224.685 274.705C242.681 353.017 284.995 413.915 350.654 457.898C364.759 467.351 379.642 467.351 393.844 457.997C441.605 426.553 477.693 384.66 501.331 331.623C501.914 330.329 502.887 329.235 503.082 327.742C503.762 322.966 500.066 319.085 494.619 319.085C461.643 319.085 428.667 319.085 395.692 319.085C392.287 319.085 389.855 320.379 387.91 323.264C383.727 329.732 378.961 335.802 374 341.574C372.054 343.862 372.054 343.862 370.109 341.574C347.444 315.105 332.853 284.656 326.336 250.027C326.044 248.535 326.336 247.739 327.6 246.942C341.9 237.29 356.199 227.539 370.498 217.787C371.568 217.09 372.346 216.891 373.513 217.687C387.813 227.539 402.209 237.29 416.605 246.942C417.676 247.739 418.065 248.336 417.773 249.828C416.022 259.281 413.59 268.436 410.575 277.491C408.435 284.059 411.547 288.437 418.259 288.437C433.531 288.437 448.706 288.437 463.978 288.437C479.444 288.437 494.911 288.437 510.377 288.437C514.462 288.437 516.894 286.447 517.964 282.467C518.548 280.377 518.937 278.287 519.521 276.297C525.065 255.898 516.019 238.186 501.039 229.429ZM449.289 335.305C449.776 334.409 450.262 333.713 451.527 333.713C462.324 333.812 473.219 333.713 484.113 333.713C484.21 334.807 483.724 335.305 483.432 335.902C460.67 381.576 427.889 417.995 385.77 445.658C377.015 451.43 367.774 451.529 359.117 445.758C296.084 403.865 255.618 345.654 238.595 270.625C236.066 259.281 240.249 249.132 249.879 242.863C253.673 240.375 257.369 237.987 261.455 235.3C263.011 243.161 264.47 250.724 266.318 258.187C275.365 295.004 289.177 329.832 310.675 360.978C323.612 379.685 338.981 395.905 357.852 408.443C367.482 414.811 376.821 414.811 386.451 408.443C406.878 394.91 423.123 376.998 436.741 356.5C441.216 349.733 445.496 342.668 449.289 335.305ZM469.328 228.932C466.799 243.36 463.588 257.689 459.503 271.819C459.017 273.312 458.53 273.909 456.877 273.909C447.052 273.809 437.227 273.909 427.111 273.909C429.154 266.346 431.002 259.082 432.266 251.52C433.336 244.952 431.391 239.479 426.041 235.798C410.866 225.25 395.594 214.901 380.323 204.652C375.167 201.169 369.525 201.169 364.37 204.552C349.001 214.802 333.631 225.25 318.359 235.798C313.204 239.38 311.064 244.853 312.134 251.122C318.943 289.432 335.09 323.165 360.382 352.321C367.191 360.182 377.21 360.182 384.019 352.42C388.688 347.047 393.163 341.474 397.248 335.603C398.221 334.21 399.194 333.713 400.847 333.713C411.645 333.812 422.442 333.713 433.337 333.713C433.337 334.011 433.434 334.31 433.337 334.509C420.399 357.097 404.738 377.297 383.63 392.621C381.587 394.114 379.35 395.507 377.21 396.9C373.805 399.188 370.401 399.089 366.996 396.9C353.281 388.143 341.51 377.098 331.297 364.361C311.842 340.38 298.516 312.916 288.691 283.661C282.563 265.65 278.186 247.141 274.878 228.434C274.586 226.743 275.365 226.245 276.435 225.449C294.917 213.409 313.399 201.269 331.978 189.228C343.553 181.666 355.226 174.103 366.704 166.541C370.595 163.953 374.194 163.953 378.085 166.541C407.851 186.044 437.714 205.547 467.577 224.951C469.036 226.046 469.619 226.942 469.328 228.932ZM469.911 209.13C441.799 190.82 413.59 172.412 385.478 154.102C376.723 148.331 367.872 148.43 359.117 154.102C331.005 172.412 302.99 190.721 274.878 209.03C274.1 209.528 273.322 210.025 272.155 210.821C271.571 205.05 270.987 199.577 270.501 194.204C270.209 191.318 270.209 188.333 269.917 185.447C269.431 181.069 271.182 177.984 274.781 175.496C299.78 158.481 324.779 141.365 349.779 124.25C352.6 122.36 355.421 120.369 358.242 118.479C367.385 112.508 376.821 112.309 385.867 118.479C413.979 137.485 441.897 156.689 469.911 175.894C473.121 178.084 474.58 180.969 474.386 184.85C473.9 193.308 473.121 201.667 472.051 210.125C470.981 210.224 470.495 209.528 469.911 209.13ZM505.805 272.615C505.513 273.511 505.221 273.909 504.249 273.909C494.23 273.909 484.113 273.909 473.9 273.909C477.499 261.172 480.514 248.435 482.849 235.4C484.405 235.897 485.67 236.992 486.934 237.788C489.755 239.579 492.576 241.37 495.3 243.261C505.027 249.629 509.112 261.172 505.805 272.615Z" fill="#F4F4F4"/>
</g>
</svg>
